<svg xmlns="http://www.w3.org/2000/svg" xmlns:xlink="http://www.w3.org/1999/xlink" width="1059" height="100" viewBox="0 0 1083 124"><path transform="translate(0 100)" d="M33.2,-64.3L45,-28.1L21.6,-28.1L33.2,-64.3ZM41.8,-0L71.1,-0L71.1,-3L61.9,-3.8L38.4,-73.4L32.8,-73.4L9.7,-4L1.2,-3L1.2,-0L23.6,-0L23.6,-3L13.9,-4L20.6,-24.9L46.1,-24.9L52.9,-3.9L41.8,-3L41.8,-0Z"></path><path transform="translate(71 100)" d="M5.3,-69.8L15.6,-69C15.8,-59.1 15.8,-49.1 15.8,-39.1L15.8,-33.7C15.8,-23.6 15.8,-13.7 15.6,-3.9L5.3,-3L5.3,-0L35.2,-0L35.2,-3L24.8,-3.9C24.6,-13.7 24.6,-23.7 24.6,-33.7L24.6,-39.1C24.6,-49.2 24.6,-59.2 24.8,-69L35.2,-69.8L35.2,-72.8L5.3,-72.8L5.3,-69.8Z"></path><path transform="translate(111 100)" d=""></path><path transform="translate(137 100)" d="M5.3,-69.8L15.6,-69C15.7,-59.2 15.7,-49.1 15.7,-39.1L15.7,-32.9C15.7,-23.5 15.7,-13.7 15.6,-3.9L5.3,-3L5.3,-0L58.2,-0L58.9,-19.5L54.5,-19.5L51.5,-3.4L24.7,-3.4C24.6,-13.4 24.6,-23.4 24.6,-32L24.6,-37.8C24.6,-49 24.6,-59.1 24.7,-69L35.4,-69.8L35.4,-72.8L5.3,-72.8L5.3,-69.8Z"></path><path transform="translate(199 100)" d="M30.3,1.5C39.3,1.5 46,-2.6 50.4,-9.4L48.8,-10.8C44.7,-6 39.6,-3.5 32.5,-3.5C21.5,-3.5 13.7,-10.4 13.5,-26.3L49.5,-26.3C50,-27.9 50.2,-29.9 50.2,-32.3C50.2,-44.1 42.5,-53.1 29.5,-53.1C16.2,-53.1 4.8,-42.5 4.8,-25.7C4.8,-7.6 15.5,1.5 30.3,1.5ZM13.6,-29.4C14.3,-42.4 21,-49.9 29.3,-49.9C37.4,-49.9 42.2,-43.7 42.2,-35.2C42.2,-31.2 41.2,-29.4 37.7,-29.4L13.6,-29.4Z"></path><path transform="translate(253 100)" d="M45.7,1.4C49.6,1.4 52.6,-0.2 54.7,-3.7L53.1,-5.2C51.5,-3.4 50.3,-2.8 48.6,-2.8C45.9,-2.8 44.4,-4.5 44.4,-10.8L44.4,-35.5C44.4,-47.9 38.8,-53.1 27.2,-53.1C15.9,-53.1 8.5,-48.2 6.5,-40C7.1,-37.7 8.6,-36.4 10.9,-36.4C13.4,-36.4 15.1,-37.7 15.7,-41.3L17.2,-48.5C19.9,-49.5 22.4,-50 25,-50C32.9,-50 36.4,-47 36.4,-35.9L36.4,-31.8C32,-30.8 27.3,-29.5 23.1,-28.2C9.9,-24.4 5.2,-19.3 5.2,-11.5C5.2,-3.2 11.1,1.5 19,1.5C26.2,1.5 30.7,-1.8 36.6,-8.2C37.4,-2.2 40.2,1.4 45.7,1.4ZM36.4,-11.3C30.1,-5.3 26.5,-3.4 22.5,-3.4C16.9,-3.4 13.2,-6.6 13.2,-12.8C13.2,-18.3 16.5,-22.6 24.9,-25.7C28.3,-27 32.3,-28.1 36.4,-29.2L36.4,-11.3Z"></path><path transform="translate(309 100)" d="M12.4,-0L30.6,-0L30.6,-2.8L21.1,-3.8L20.9,-22.9L20.9,-32.2C23.9,-40.3 27.6,-45.1 32.9,-47.6L33.8,-46.7C36.1,-44.3 37.8,-42.9 40.4,-42.9C43.9,-42.9 45.5,-45.1 45.6,-48.6C44.6,-51.5 41.4,-53.1 37.6,-53.1C30.9,-53.1 24.2,-47.3 20.9,-38.2L20.3,-52L19,-52.8L3.6,-48.8L3.6,-46.2L12.4,-45.8C12.6,-40.8 12.7,-35.8 12.7,-28.9L12.7,-22.9L12.5,-3.7L4.1,-2.8L4.1,-0L12.4,-0Z"></path><path transform="translate(355 100)" d="M46.4,-0L62.7,-0L62.7,-2.8L55,-3.6L54.8,-22.9L54.8,-34.2C54.8,-47.7 49.6,-53.1 40.9,-53.1C34.3,-53.1 27.6,-49.9 20.8,-42.2L20.3,-52L19,-52.8L3.6,-48.8L3.6,-46.2L12.4,-45.8C12.6,-40.8 12.7,-35.8 12.7,-28.9L12.7,-22.9L12.5,-3.6L4.2,-2.8L4.2,-0L28.7,-0L28.7,-2.8L21.1,-3.6L20.9,-22.9L20.9,-39C27.5,-45.7 33.3,-47.7 37.5,-47.7C43.3,-47.7 46.7,-44.3 46.7,-34.4L46.7,-22.9L46.5,-3.7L38.2,-2.8L38.2,-0L46.4,-0Z"></path><path transform="translate(421 100)" d="M16.3,-65.5C19.4,-65.5 22.1,-67.8 22.1,-71.1C22.1,-74.4 19.4,-76.8 16.3,-76.8C13.1,-76.8 10.5,-74.4 10.5,-71.1C10.5,-67.8 13.1,-65.5 16.3,-65.5ZM12.6,-0L29,-0L29,-2.8L21.3,-3.6C21.2,-9.2 21.1,-17.5 21.1,-22.9L21.1,-38L21.4,-52L20.2,-52.8L3.7,-48.9L3.7,-46.3L12.6,-45.9C12.8,-40.9 13,-35.6 13,-28.9L13,-22.9C13,-17.5 12.9,-9.2 12.7,-3.6L4.3,-2.8L4.3,-0L12.6,-0Z"></path><path transform="translate(454 100)" d="M46.4,-0L62.7,-0L62.7,-2.8L55,-3.6L54.8,-22.9L54.8,-34.2C54.8,-47.7 49.6,-53.1 40.9,-53.1C34.3,-53.1 27.6,-49.9 20.8,-42.2L20.3,-52L19,-52.8L3.6,-48.8L3.6,-46.2L12.4,-45.8C12.6,-40.8 12.7,-35.8 12.7,-28.9L12.7,-22.9L12.5,-3.6L4.2,-2.8L4.2,-0L28.7,-0L28.7,-2.8L21.1,-3.6L20.9,-22.9L20.9,-39C27.5,-45.7 33.3,-47.7 37.5,-47.7C43.3,-47.7 46.7,-44.3 46.7,-34.4L46.7,-22.9L46.5,-3.7L38.2,-2.8L38.2,-0L46.4,-0Z"></path><path transform="translate(520 100)" d="M26.1,-20.4C18.8,-20.4 14.3,-26.3 14.3,-35.2C14.3,-44.2 19,-50.1 26.2,-50.1C33.3,-50.1 38.1,-44.3 38.1,-35.3C38.1,-26.4 33.3,-20.4 26.1,-20.4ZM26.1,-17.4C38.1,-17.4 45.7,-24.5 45.7,-35.2C45.7,-39.7 44.4,-43.6 42,-46.6L53.8,-46.2L53.8,-51.6L52.1,-52.7L39.6,-48.8C36.5,-51.5 31.8,-53.1 26.2,-53.1C14.1,-53.1 6.6,-46 6.6,-35.2C6.6,-28.4 9.6,-23 14.9,-20C9.7,-15.8 7.6,-12.3 7.6,-8.4C7.6,-4.2 9.8,-1.2 14.4,0.2C7.6,3.4 4.1,7.3 4.1,12.8C4.1,20.5 9.9,26 24.9,26C43.4,26 53.3,16.8 53.3,7.5C53.3,-0.9 47.6,-5.8 35.5,-5.8L20.9,-5.8C15.4,-5.8 13.2,-8.2 13.2,-11.6C13.2,-14.4 14.4,-16.3 16.9,-19.1C19.5,-18 22.6,-17.4 26.1,-17.4ZM16.4,1C18.3,1.3 20.2,1.4 22.8,1.4L35.1,1.4C43.5,1.4 46.2,5.2 46.2,9.7C46.2,16.9 39,22.4 25.1,22.4C15.7,22.4 10.4,18.6 10.4,11.4C10.4,7 12.3,4.3 16.4,1Z"></path><path transform="translate(577 100)" d=""></path><path transform="translate(603 100)" d="M42.2,1.6C50.3,1.6 57.1,-0 63.8,-4L64,-19.9L59.5,-19.9L56.5,-4.9C52.3,-2.7 47.9,-1.8 43.1,-1.8C27,-1.8 15.1,-14 15.1,-36.4C15.1,-58.5 27,-70.9 43.5,-70.9C48.1,-70.9 51.9,-70.1 55.7,-68.1L58.7,-52.9L63.2,-52.9L62.9,-68.9C56.5,-72.7 50.4,-74.5 42.2,-74.5C21.3,-74.5 5.6,-59.7 5.6,-36.2C5.6,-12.7 20.7,1.6 42.2,1.6Z"></path><path transform="translate(672 100)" d="M29.7,1.5C43,1.5 54.7,-7.7 54.7,-25.8C54.7,-43.8 42.6,-53.1 29.7,-53.1C16.9,-53.1 4.8,-43.7 4.8,-25.8C4.8,-7.8 16.5,1.5 29.7,1.5ZM29.7,-1.6C19.8,-1.6 13.7,-10.1 13.7,-25.7C13.7,-41.3 19.8,-49.9 29.7,-49.9C39.6,-49.9 45.7,-41.3 45.7,-25.7C45.7,-10.1 39.6,-1.6 29.7,-1.6Z"></path><path transform="translate(732 100)" d="M77.8,-0L94.1,-0L94.1,-2.8L86.5,-3.6L86.3,-22.9L86.3,-34.3C86.3,-47.7 81.3,-53.1 72.1,-53.1C65.2,-53.1 58.8,-49.7 52.7,-42.3C51,-49.9 46.6,-53.1 39.9,-53.1C33.1,-53.1 26.9,-49.4 20.8,-42.3L20.3,-52L19,-52.8L3.6,-48.8L3.6,-46.3L12.4,-45.8C12.6,-40.8 12.7,-35.8 12.7,-29L12.7,-22.9L12.5,-3.6L4.2,-2.8L4.2,-0L28.7,-0L28.7,-2.8L21.1,-3.6L20.9,-22.9L20.9,-38.9C27,-45.3 32.2,-47.7 36.8,-47.7C42.2,-47.7 45.5,-44 45.5,-34.2L45.5,-22.9L45.3,-3.6L37,-2.8L37,-0L61.4,-0L61.4,-2.8L53.7,-3.6L53.5,-22.9L53.5,-34.2C53.5,-36 53.4,-37.7 53.2,-39.3C59.2,-45.6 64.6,-47.7 69.1,-47.7C74.8,-47.7 78.2,-44.4 78.2,-34.2L78.2,-22.9C78.2,-17.3 78.1,-9.2 78,-3.6L69.8,-2.8L69.8,-0L77.8,-0Z"></path><path transform="translate(828 100)" d="M36.7,1.5C49.6,1.5 58.9,-9.2 58.9,-26.3C58.9,-42.7 50.2,-53.1 38,-53.1C31.9,-53.1 25.8,-50.6 20.8,-44.6L20.3,-52L19,-52.8L3.6,-48.8L3.6,-46.2L12.5,-45.8C12.7,-40.8 12.8,-35.5 12.8,-28.7L12.8,2.7L12.6,22.4L4.1,23.2L4.1,26L30.8,26L30.8,23.2L21.1,22.4L20.9,2.7L20.9,-5.8C25.7,-0.3 31.3,1.5 36.7,1.5ZM21.1,-42C26.1,-47 30.4,-48.5 34.8,-48.5C43.9,-48.5 50.1,-41.3 50.1,-26.1C50.1,-9.5 43,-3.3 34.3,-3.3C29.4,-3.3 25.4,-4.6 21.1,-8.8L21.1,-42Z"></path><path transform="translate(892 100)" d="M16.3,-65.5C19.4,-65.5 22.1,-67.8 22.1,-71.1C22.1,-74.4 19.4,-76.8 16.3,-76.8C13.1,-76.8 10.5,-74.4 10.5,-71.1C10.5,-67.8 13.1,-65.5 16.3,-65.5ZM12.6,-0L29,-0L29,-2.8L21.3,-3.6C21.2,-9.2 21.1,-17.5 21.1,-22.9L21.1,-38L21.4,-52L20.2,-52.8L3.7,-48.9L3.7,-46.3L12.6,-45.9C12.8,-40.9 13,-35.6 13,-28.9L13,-22.9C13,-17.5 12.9,-9.2 12.7,-3.6L4.3,-2.8L4.3,-0L12.6,-0Z"></path><path transform="translate(925 100)" d="M12.5,-0L30.1,-0L30.1,-2.8L21.2,-3.6L21,-22.9L21,-64.1L21.3,-79.6L19.8,-80.5L4,-77.5L4,-74.8L12.8,-74.4L12.8,-22.9L12.6,-3.7L3.5,-2.8L3.5,-0L12.5,-0Z"></path><path transform="translate(958 100)" d="M30.3,1.5C39.3,1.5 46,-2.6 50.4,-9.4L48.8,-10.8C44.7,-6 39.6,-3.5 32.5,-3.5C21.5,-3.5 13.7,-10.4 13.5,-26.3L49.5,-26.3C50,-27.9 50.2,-29.9 50.2,-32.3C50.2,-44.1 42.5,-53.1 29.5,-53.1C16.2,-53.1 4.8,-42.5 4.8,-25.7C4.8,-7.6 15.5,1.5 30.3,1.5ZM13.6,-29.4C14.3,-42.4 21,-49.9 29.3,-49.9C37.4,-49.9 42.2,-43.7 42.2,-35.2C42.2,-31.2 41.2,-29.4 37.7,-29.4L13.6,-29.4Z"></path><path transform="translate(1013 100)" d="M12.4,-0L30.6,-0L30.6,-2.8L21.1,-3.8L20.9,-22.9L20.9,-32.2C23.9,-40.3 27.6,-45.1 32.9,-47.6L33.8,-46.7C36.1,-44.3 37.8,-42.9 40.4,-42.9C43.9,-42.9 45.5,-45.1 45.6,-48.6C44.6,-51.5 41.4,-53.1 37.6,-53.1C30.9,-53.1 24.2,-47.3 20.9,-38.2L20.3,-52L19,-52.8L3.6,-48.8L3.6,-46.2L12.4,-45.8C12.6,-40.8 12.7,-35.8 12.7,-28.9L12.7,-22.9L12.5,-3.7L4.1,-2.8L4.1,-0L12.4,-0Z"></path></svg>